<mxfile host="65bd71144e">
    <diagram id="VkrndAy6EloFZf3CxVXe" name="E-R图(投诉)">
        <mxGraphModel dx="906" dy="507" grid="1" gridSize="10" guides="1" tooltips="1" connect="1" arrows="1" fold="1" page="1" pageScale="1" pageWidth="827" pageHeight="1169" math="0" shadow="0">
            <root>
                <mxCell id="0"/>
                <mxCell id="1" parent="0"/>
                <mxCell id="A91-F1ble7apJPzSlR-q-1" value="&lt;font style=&quot;font-size: 16px;&quot;&gt;病人&lt;/font&gt;" style="rounded=0;whiteSpace=wrap;html=1;fontFamily=Helvetica;" parent="1" vertex="1">
                    <mxGeometry x="370" y="170" width="80" height="40" as="geometry"/>
                </mxCell>
                <mxCell id="A91-F1ble7apJPzSlR-q-2" value="账号" style="ellipse;whiteSpace=wrap;html=1;fontSize=16;fontFamily=Helvetica;" parent="1" vertex="1">
                    <mxGeometry x="200" y="140" width="70" height="40" as="geometry"/>
                </mxCell>
                <mxCell id="A91-F1ble7apJPzSlR-q-3" value="密码" style="ellipse;whiteSpace=wrap;html=1;fontSize=16;fontFamily=Helvetica;" parent="1" vertex="1">
                    <mxGeometry x="530" y="140" width="70" height="40" as="geometry"/>
                </mxCell>
                <mxCell id="A91-F1ble7apJPzSlR-q-4" value="姓名" style="ellipse;whiteSpace=wrap;html=1;fontSize=16;fontFamily=Helvetica;" parent="1" vertex="1">
                    <mxGeometry x="530" y="50" width="70" height="40" as="geometry"/>
                </mxCell>
                <mxCell id="A91-F1ble7apJPzSlR-q-5" value="ID" style="ellipse;whiteSpace=wrap;html=1;fontSize=16;fontFamily=Helvetica;" parent="1" vertex="1">
                    <mxGeometry x="200" y="50" width="70" height="40" as="geometry"/>
                </mxCell>
                <mxCell id="A91-F1ble7apJPzSlR-q-7" value="性别" style="ellipse;whiteSpace=wrap;html=1;fontSize=16;fontFamily=Helvetica;" parent="1" vertex="1">
                    <mxGeometry x="320" y="50" width="70" height="40" as="geometry"/>
                </mxCell>
                <mxCell id="A91-F1ble7apJPzSlR-q-8" value="年龄" style="ellipse;whiteSpace=wrap;html=1;fontSize=16;fontFamily=Helvetica;" parent="1" vertex="1">
                    <mxGeometry x="430" y="50" width="70" height="40" as="geometry"/>
                </mxCell>
                <mxCell id="A91-F1ble7apJPzSlR-q-9" value="电话" style="ellipse;whiteSpace=wrap;html=1;fontSize=16;fontFamily=Helvetica;" parent="1" vertex="1">
                    <mxGeometry x="270" y="90" width="70" height="40" as="geometry"/>
                </mxCell>
                <mxCell id="A91-F1ble7apJPzSlR-q-10" value="邮箱" style="ellipse;whiteSpace=wrap;html=1;fontSize=16;fontFamily=Helvetica;" parent="1" vertex="1">
                    <mxGeometry x="375" y="90" width="70" height="40" as="geometry"/>
                </mxCell>
                <mxCell id="A91-F1ble7apJPzSlR-q-11" value="医保" style="ellipse;whiteSpace=wrap;html=1;fontSize=16;fontFamily=Helvetica;" parent="1" vertex="1">
                    <mxGeometry x="470" y="90" width="70" height="40" as="geometry"/>
                </mxCell>
                <mxCell id="p96J7U3AIc4TSG7YhwrV-1" value="&lt;font style=&quot;font-size: 16px;&quot;&gt;投诉&lt;/font&gt;" style="rounded=0;whiteSpace=wrap;html=1;fontFamily=Helvetica;" parent="1" vertex="1">
                    <mxGeometry x="370" y="440" width="80" height="40" as="geometry"/>
                </mxCell>
                <mxCell id="p96J7U3AIc4TSG7YhwrV-3" value="时间" style="ellipse;whiteSpace=wrap;html=1;fontSize=16;fontFamily=Helvetica;" parent="1" vertex="1">
                    <mxGeometry x="225" y="390" width="70" height="40" as="geometry"/>
                </mxCell>
                <mxCell id="p96J7U3AIc4TSG7YhwrV-4" value="标识" style="ellipse;whiteSpace=wrap;html=1;fontSize=16;fontFamily=Helvetica;" parent="1" vertex="1">
                    <mxGeometry x="515" y="390" width="70" height="40" as="geometry"/>
                </mxCell>
                <mxCell id="p96J7U3AIc4TSG7YhwrV-5" value="内容" style="ellipse;whiteSpace=wrap;html=1;fontSize=16;fontFamily=Helvetica;" parent="1" vertex="1">
                    <mxGeometry x="250" y="490" width="70" height="40" as="geometry"/>
                </mxCell>
                <mxCell id="p96J7U3AIc4TSG7YhwrV-6" value="结果" style="ellipse;whiteSpace=wrap;html=1;fontSize=16;fontFamily=Helvetica;" parent="1" vertex="1">
                    <mxGeometry x="515" y="490" width="70" height="40" as="geometry"/>
                </mxCell>
                <mxCell id="_Z8bAi8CUv-X2nDh-UN_-4" value="" style="endArrow=none;html=1;fontSize=16;exitX=0;exitY=1;exitDx=0;exitDy=0;entryX=0;entryY=0.75;entryDx=0;entryDy=0;fontFamily=Helvetica;" parent="1" source="A91-F1ble7apJPzSlR-q-5" target="A91-F1ble7apJPzSlR-q-1" edge="1">
                    <mxGeometry width="50" height="50" relative="1" as="geometry">
                        <mxPoint x="400" y="260" as="sourcePoint"/>
                        <mxPoint x="450" y="210" as="targetPoint"/>
                    </mxGeometry>
                </mxCell>
                <mxCell id="_Z8bAi8CUv-X2nDh-UN_-5" value="" style="endArrow=none;html=1;fontSize=16;entryX=1;entryY=1;entryDx=0;entryDy=0;exitX=1;exitY=0.75;exitDx=0;exitDy=0;fontFamily=Helvetica;" parent="1" source="A91-F1ble7apJPzSlR-q-1" target="A91-F1ble7apJPzSlR-q-4" edge="1">
                    <mxGeometry width="50" height="50" relative="1" as="geometry">
                        <mxPoint x="400" y="260" as="sourcePoint"/>
                        <mxPoint x="450" y="210" as="targetPoint"/>
                    </mxGeometry>
                </mxCell>
                <mxCell id="_Z8bAi8CUv-X2nDh-UN_-6" value="" style="endArrow=none;html=1;fontSize=16;exitX=0.5;exitY=1;exitDx=0;exitDy=0;entryX=0.25;entryY=0;entryDx=0;entryDy=0;fontFamily=Helvetica;" parent="1" source="A91-F1ble7apJPzSlR-q-7" target="A91-F1ble7apJPzSlR-q-1" edge="1">
                    <mxGeometry width="50" height="50" relative="1" as="geometry">
                        <mxPoint x="400" y="260" as="sourcePoint"/>
                        <mxPoint x="450" y="210" as="targetPoint"/>
                    </mxGeometry>
                </mxCell>
                <mxCell id="_Z8bAi8CUv-X2nDh-UN_-7" value="" style="endArrow=none;html=1;fontSize=16;entryX=0.5;entryY=1;entryDx=0;entryDy=0;exitX=0.75;exitY=0;exitDx=0;exitDy=0;fontFamily=Helvetica;" parent="1" source="A91-F1ble7apJPzSlR-q-1" target="A91-F1ble7apJPzSlR-q-8" edge="1">
                    <mxGeometry width="50" height="50" relative="1" as="geometry">
                        <mxPoint x="400" y="260" as="sourcePoint"/>
                        <mxPoint x="450" y="210" as="targetPoint"/>
                    </mxGeometry>
                </mxCell>
                <mxCell id="_Z8bAi8CUv-X2nDh-UN_-8" value="" style="endArrow=none;html=1;fontSize=16;exitX=1;exitY=1;exitDx=0;exitDy=0;entryX=0;entryY=1;entryDx=0;entryDy=0;fontFamily=Helvetica;" parent="1" source="A91-F1ble7apJPzSlR-q-2" target="A91-F1ble7apJPzSlR-q-1" edge="1">
                    <mxGeometry width="50" height="50" relative="1" as="geometry">
                        <mxPoint x="235" y="190" as="sourcePoint"/>
                        <mxPoint x="450" y="210" as="targetPoint"/>
                    </mxGeometry>
                </mxCell>
                <mxCell id="_Z8bAi8CUv-X2nDh-UN_-9" value="" style="endArrow=none;html=1;fontSize=16;entryX=0;entryY=1;entryDx=0;entryDy=0;exitX=1;exitY=1;exitDx=0;exitDy=0;fontFamily=Helvetica;" parent="1" source="A91-F1ble7apJPzSlR-q-1" target="A91-F1ble7apJPzSlR-q-3" edge="1">
                    <mxGeometry width="50" height="50" relative="1" as="geometry">
                        <mxPoint x="400" y="260" as="sourcePoint"/>
                        <mxPoint x="450" y="210" as="targetPoint"/>
                    </mxGeometry>
                </mxCell>
                <mxCell id="_Z8bAi8CUv-X2nDh-UN_-10" value="" style="endArrow=none;html=1;fontSize=16;exitX=1;exitY=1;exitDx=0;exitDy=0;entryX=0;entryY=0.25;entryDx=0;entryDy=0;fontFamily=Helvetica;" parent="1" source="A91-F1ble7apJPzSlR-q-9" target="A91-F1ble7apJPzSlR-q-1" edge="1">
                    <mxGeometry width="50" height="50" relative="1" as="geometry">
                        <mxPoint x="400" y="260" as="sourcePoint"/>
                        <mxPoint x="450" y="210" as="targetPoint"/>
                    </mxGeometry>
                </mxCell>
                <mxCell id="_Z8bAi8CUv-X2nDh-UN_-11" value="" style="endArrow=none;html=1;fontSize=16;entryX=0;entryY=1;entryDx=0;entryDy=0;exitX=1;exitY=0.25;exitDx=0;exitDy=0;fontFamily=Helvetica;" parent="1" source="A91-F1ble7apJPzSlR-q-1" target="A91-F1ble7apJPzSlR-q-11" edge="1">
                    <mxGeometry width="50" height="50" relative="1" as="geometry">
                        <mxPoint x="400" y="260" as="sourcePoint"/>
                        <mxPoint x="450" y="210" as="targetPoint"/>
                    </mxGeometry>
                </mxCell>
                <mxCell id="_Z8bAi8CUv-X2nDh-UN_-12" value="" style="endArrow=none;html=1;fontSize=16;entryX=0.5;entryY=1;entryDx=0;entryDy=0;fontFamily=Helvetica;exitX=0.5;exitY=0;exitDx=0;exitDy=0;" parent="1" target="A91-F1ble7apJPzSlR-q-10" edge="1" source="A91-F1ble7apJPzSlR-q-1">
                    <mxGeometry width="50" height="50" relative="1" as="geometry">
                        <mxPoint x="410" y="160" as="sourcePoint"/>
                        <mxPoint x="450" y="210" as="targetPoint"/>
                    </mxGeometry>
                </mxCell>
                <mxCell id="5miCes0c3BRJ7a9snd-E-9" value="" style="endArrow=none;html=1;fontSize=16;exitX=1;exitY=1;exitDx=0;exitDy=0;entryX=0.075;entryY=0;entryDx=0;entryDy=0;entryPerimeter=0;fontFamily=Helvetica;" parent="1" source="p96J7U3AIc4TSG7YhwrV-3" target="p96J7U3AIc4TSG7YhwrV-1" edge="1">
                    <mxGeometry width="50" height="50" relative="1" as="geometry">
                        <mxPoint x="300" y="490" as="sourcePoint"/>
                        <mxPoint x="366" y="440" as="targetPoint"/>
                    </mxGeometry>
                </mxCell>
                <mxCell id="5miCes0c3BRJ7a9snd-E-10" value="" style="endArrow=none;html=1;fontSize=16;entryX=0;entryY=1;entryDx=0;entryDy=0;fontFamily=Helvetica;" parent="1" target="p96J7U3AIc4TSG7YhwrV-4" edge="1">
                    <mxGeometry width="50" height="50" relative="1" as="geometry">
                        <mxPoint x="450" y="440" as="sourcePoint"/>
                        <mxPoint x="476" y="420" as="targetPoint"/>
                    </mxGeometry>
                </mxCell>
                <mxCell id="5miCes0c3BRJ7a9snd-E-11" value="" style="endArrow=none;html=1;fontSize=16;exitX=1;exitY=0;exitDx=0;exitDy=0;entryX=0;entryY=1;entryDx=0;entryDy=0;fontFamily=Helvetica;" parent="1" source="p96J7U3AIc4TSG7YhwrV-5" target="p96J7U3AIc4TSG7YhwrV-1" edge="1">
                    <mxGeometry width="50" height="50" relative="1" as="geometry">
                        <mxPoint x="366" y="530" as="sourcePoint"/>
                        <mxPoint x="376" y="480" as="targetPoint"/>
                    </mxGeometry>
                </mxCell>
                <mxCell id="5miCes0c3BRJ7a9snd-E-12" value="" style="endArrow=none;html=1;fontSize=16;entryX=0;entryY=0;entryDx=0;entryDy=0;exitX=1;exitY=1;exitDx=0;exitDy=0;fontFamily=Helvetica;" parent="1" source="p96J7U3AIc4TSG7YhwrV-1" target="p96J7U3AIc4TSG7YhwrV-6" edge="1">
                    <mxGeometry width="50" height="50" relative="1" as="geometry">
                        <mxPoint x="410" y="560" as="sourcePoint"/>
                        <mxPoint x="460" y="510" as="targetPoint"/>
                    </mxGeometry>
                </mxCell>
                <mxCell id="5miCes0c3BRJ7a9snd-E-15" value="执行/查看" style="rhombus;whiteSpace=wrap;html=1;fontSize=16;fontFamily=Helvetica;" parent="1" vertex="1">
                    <mxGeometry x="357" y="280" width="106" height="60" as="geometry"/>
                </mxCell>
                <mxCell id="5miCes0c3BRJ7a9snd-E-18" value="" style="endArrow=none;html=1;fontSize=16;entryX=0.5;entryY=1;entryDx=0;entryDy=0;exitX=0.5;exitY=0;exitDx=0;exitDy=0;fontFamily=Helvetica;" parent="1" source="5miCes0c3BRJ7a9snd-E-15" target="A91-F1ble7apJPzSlR-q-1" edge="1">
                    <mxGeometry width="50" height="50" relative="1" as="geometry">
                        <mxPoint x="410" y="360" as="sourcePoint"/>
                        <mxPoint x="460" y="310" as="targetPoint"/>
                    </mxGeometry>
                </mxCell>
                <mxCell id="5miCes0c3BRJ7a9snd-E-22" value="" style="endArrow=none;html=1;fontSize=16;exitX=0.5;exitY=1;exitDx=0;exitDy=0;fontFamily=Helvetica;" parent="1" edge="1">
                    <mxGeometry width="50" height="50" relative="1" as="geometry">
                        <mxPoint x="409.5" y="340" as="sourcePoint"/>
                        <mxPoint x="409.5" y="440" as="targetPoint"/>
                    </mxGeometry>
                </mxCell>
                <mxCell id="uFyaukuFtMbKK42lwuoA-1" value="&lt;font style=&quot;font-size: 16px;&quot;&gt;医生&lt;/font&gt;" style="rounded=0;whiteSpace=wrap;html=1;fontFamily=Helvetica;" parent="1" vertex="1">
                    <mxGeometry x="195" y="680" width="80" height="40" as="geometry"/>
                </mxCell>
                <mxCell id="uFyaukuFtMbKK42lwuoA-2" value="账号" style="ellipse;whiteSpace=wrap;html=1;fontSize=16;fontFamily=Helvetica;" parent="1" vertex="1">
                    <mxGeometry x="95" y="750" width="70" height="40" as="geometry"/>
                </mxCell>
                <mxCell id="uFyaukuFtMbKK42lwuoA-3" value="密码" style="ellipse;whiteSpace=wrap;html=1;fontSize=16;fontFamily=Helvetica;" parent="1" vertex="1">
                    <mxGeometry x="25" y="790" width="70" height="40" as="geometry"/>
                </mxCell>
                <mxCell id="uFyaukuFtMbKK42lwuoA-4" value="姓名" style="ellipse;whiteSpace=wrap;html=1;fontSize=16;fontFamily=Helvetica;" parent="1" vertex="1">
                    <mxGeometry x="255" y="790" width="70" height="40" as="geometry"/>
                </mxCell>
                <mxCell id="uFyaukuFtMbKK42lwuoA-5" value="电话" style="ellipse;whiteSpace=wrap;html=1;fontSize=16;fontFamily=Helvetica;" parent="1" vertex="1">
                    <mxGeometry x="305" y="750" width="70" height="40" as="geometry"/>
                </mxCell>
                <mxCell id="uFyaukuFtMbKK42lwuoA-6" value="邮箱" style="ellipse;whiteSpace=wrap;html=1;fontSize=16;fontFamily=Helvetica;" parent="1" vertex="1">
                    <mxGeometry x="145" y="790" width="70" height="40" as="geometry"/>
                </mxCell>
                <mxCell id="uFyaukuFtMbKK42lwuoA-7" value="专家" style="ellipse;whiteSpace=wrap;html=1;fontSize=16;fontFamily=Helvetica;" parent="1" vertex="1">
                    <mxGeometry x="375" y="790" width="70" height="40" as="geometry"/>
                </mxCell>
                <mxCell id="uFyaukuFtMbKK42lwuoA-8" value="最后登录" style="ellipse;whiteSpace=wrap;html=1;fontSize=16;fontFamily=Helvetica;" parent="1" vertex="1">
                    <mxGeometry x="199" y="750" width="70" height="40" as="geometry"/>
                </mxCell>
                <mxCell id="uFyaukuFtMbKK42lwuoA-9" value="" style="endArrow=none;html=1;fontSize=16;exitX=0.5;exitY=0;exitDx=0;exitDy=0;entryX=0;entryY=0.5;entryDx=0;entryDy=0;fontFamily=Helvetica;" parent="1" source="uFyaukuFtMbKK42lwuoA-2" target="uFyaukuFtMbKK42lwuoA-1" edge="1">
                    <mxGeometry width="50" height="50" relative="1" as="geometry">
                        <mxPoint x="235" y="790" as="sourcePoint"/>
                        <mxPoint x="285" y="740" as="targetPoint"/>
                    </mxGeometry>
                </mxCell>
                <mxCell id="uFyaukuFtMbKK42lwuoA-10" value="" style="endArrow=none;html=1;fontSize=16;exitX=0.5;exitY=0;exitDx=0;exitDy=0;entryX=0.5;entryY=1;entryDx=0;entryDy=0;fontFamily=Helvetica;" parent="1" source="uFyaukuFtMbKK42lwuoA-8" target="uFyaukuFtMbKK42lwuoA-1" edge="1">
                    <mxGeometry width="50" height="50" relative="1" as="geometry">
                        <mxPoint x="235" y="790" as="sourcePoint"/>
                        <mxPoint x="285" y="740" as="targetPoint"/>
                    </mxGeometry>
                </mxCell>
                <mxCell id="uFyaukuFtMbKK42lwuoA-11" value="" style="endArrow=none;html=1;fontSize=16;entryX=1;entryY=0.5;entryDx=0;entryDy=0;exitX=0.5;exitY=0;exitDx=0;exitDy=0;fontFamily=Helvetica;" parent="1" source="uFyaukuFtMbKK42lwuoA-5" target="uFyaukuFtMbKK42lwuoA-1" edge="1">
                    <mxGeometry width="50" height="50" relative="1" as="geometry">
                        <mxPoint x="235" y="790" as="sourcePoint"/>
                        <mxPoint x="285" y="740" as="targetPoint"/>
                    </mxGeometry>
                </mxCell>
                <mxCell id="uFyaukuFtMbKK42lwuoA-12" value="" style="endArrow=none;html=1;fontSize=16;exitX=0;exitY=0;exitDx=0;exitDy=0;entryX=0;entryY=0.25;entryDx=0;entryDy=0;fontFamily=Helvetica;" parent="1" source="uFyaukuFtMbKK42lwuoA-3" target="uFyaukuFtMbKK42lwuoA-1" edge="1">
                    <mxGeometry width="50" height="50" relative="1" as="geometry">
                        <mxPoint x="235" y="790" as="sourcePoint"/>
                        <mxPoint x="285" y="740" as="targetPoint"/>
                    </mxGeometry>
                </mxCell>
                <mxCell id="uFyaukuFtMbKK42lwuoA-13" value="" style="endArrow=none;html=1;fontSize=16;entryX=1;entryY=0;entryDx=0;entryDy=0;fontFamily=Helvetica;exitX=1;exitY=0.5;exitDx=0;exitDy=0;" parent="1" source="uFyaukuFtMbKK42lwuoA-1" target="uFyaukuFtMbKK42lwuoA-7" edge="1">
                    <mxGeometry width="50" height="50" relative="1" as="geometry">
                        <mxPoint x="350" y="720" as="sourcePoint"/>
                        <mxPoint x="285" y="640" as="targetPoint"/>
                    </mxGeometry>
                </mxCell>
                <mxCell id="uFyaukuFtMbKK42lwuoA-14" value="" style="endArrow=none;html=1;fontSize=16;exitX=0.5;exitY=0;exitDx=0;exitDy=0;entryX=0.25;entryY=1;entryDx=0;entryDy=0;fontFamily=Helvetica;" parent="1" source="uFyaukuFtMbKK42lwuoA-6" target="uFyaukuFtMbKK42lwuoA-1" edge="1">
                    <mxGeometry width="50" height="50" relative="1" as="geometry">
                        <mxPoint x="235" y="690" as="sourcePoint"/>
                        <mxPoint x="285" y="640" as="targetPoint"/>
                    </mxGeometry>
                </mxCell>
                <mxCell id="uFyaukuFtMbKK42lwuoA-15" value="" style="endArrow=none;html=1;fontSize=16;exitX=0.5;exitY=0;exitDx=0;exitDy=0;entryX=0.75;entryY=1;entryDx=0;entryDy=0;fontFamily=Helvetica;" parent="1" source="uFyaukuFtMbKK42lwuoA-4" target="uFyaukuFtMbKK42lwuoA-1" edge="1">
                    <mxGeometry width="50" height="50" relative="1" as="geometry">
                        <mxPoint x="235" y="690" as="sourcePoint"/>
                        <mxPoint x="285" y="640" as="targetPoint"/>
                    </mxGeometry>
                </mxCell>
                <mxCell id="uFyaukuFtMbKK42lwuoA-25" value="&lt;span style=&quot;font-size: 16px;&quot;&gt;管理员&lt;/span&gt;" style="rounded=0;whiteSpace=wrap;html=1;fontFamily=Helvetica;" parent="1" vertex="1">
                    <mxGeometry x="535" y="680" width="80" height="40" as="geometry"/>
                </mxCell>
                <mxCell id="uFyaukuFtMbKK42lwuoA-26" value="账号" style="ellipse;whiteSpace=wrap;html=1;fontSize=16;fontFamily=Helvetica;" parent="1" vertex="1">
                    <mxGeometry x="445" y="750" width="70" height="40" as="geometry"/>
                </mxCell>
                <mxCell id="uFyaukuFtMbKK42lwuoA-27" value="密码" style="ellipse;whiteSpace=wrap;html=1;fontSize=16;fontFamily=Helvetica;" parent="1" vertex="1">
                    <mxGeometry x="540" y="750" width="70" height="40" as="geometry"/>
                </mxCell>
                <mxCell id="uFyaukuFtMbKK42lwuoA-28" value="姓名" style="ellipse;whiteSpace=wrap;html=1;fontSize=16;fontFamily=Helvetica;" parent="1" vertex="1">
                    <mxGeometry x="645" y="680" width="70" height="40" as="geometry"/>
                </mxCell>
                <mxCell id="uFyaukuFtMbKK42lwuoA-29" value="邮箱" style="ellipse;whiteSpace=wrap;html=1;fontSize=16;fontFamily=Helvetica;" parent="1" vertex="1">
                    <mxGeometry x="635" y="750" width="70" height="40" as="geometry"/>
                </mxCell>
                <mxCell id="uFyaukuFtMbKK42lwuoA-30" value="职位" style="ellipse;whiteSpace=wrap;html=1;fontSize=16;fontFamily=Helvetica;" parent="1" vertex="1">
                    <mxGeometry x="599" y="800" width="70" height="40" as="geometry"/>
                </mxCell>
                <mxCell id="uFyaukuFtMbKK42lwuoA-31" value="最后登录" style="ellipse;whiteSpace=wrap;html=1;fontSize=16;fontFamily=Helvetica;" parent="1" vertex="1">
                    <mxGeometry x="485" y="800" width="70" height="40" as="geometry"/>
                </mxCell>
                <mxCell id="uFyaukuFtMbKK42lwuoA-32" value="" style="endArrow=none;html=1;fontSize=16;exitX=0.5;exitY=0;exitDx=0;exitDy=0;fontFamily=Helvetica;" parent="1" source="uFyaukuFtMbKK42lwuoA-26" target="uFyaukuFtMbKK42lwuoA-25" edge="1">
                    <mxGeometry width="50" height="50" relative="1" as="geometry">
                        <mxPoint x="335" y="660" as="sourcePoint"/>
                        <mxPoint x="385" y="610" as="targetPoint"/>
                    </mxGeometry>
                </mxCell>
                <mxCell id="uFyaukuFtMbKK42lwuoA-33" value="" style="endArrow=none;html=1;fontSize=16;exitX=0.5;exitY=0;exitDx=0;exitDy=0;entryX=0.5;entryY=1;entryDx=0;entryDy=0;fontFamily=Helvetica;" parent="1" source="uFyaukuFtMbKK42lwuoA-27" target="uFyaukuFtMbKK42lwuoA-25" edge="1">
                    <mxGeometry width="50" height="50" relative="1" as="geometry">
                        <mxPoint x="335" y="660" as="sourcePoint"/>
                        <mxPoint x="385" y="610" as="targetPoint"/>
                    </mxGeometry>
                </mxCell>
                <mxCell id="uFyaukuFtMbKK42lwuoA-34" value="" style="endArrow=none;html=1;fontSize=16;exitX=0.5;exitY=0;exitDx=0;exitDy=0;entryX=1;entryY=1;entryDx=0;entryDy=0;fontFamily=Helvetica;" parent="1" source="uFyaukuFtMbKK42lwuoA-29" target="uFyaukuFtMbKK42lwuoA-25" edge="1">
                    <mxGeometry width="50" height="50" relative="1" as="geometry">
                        <mxPoint x="335" y="660" as="sourcePoint"/>
                        <mxPoint x="385" y="610" as="targetPoint"/>
                    </mxGeometry>
                </mxCell>
                <mxCell id="uFyaukuFtMbKK42lwuoA-35" value="" style="endArrow=none;html=1;fontSize=16;exitX=0;exitY=0.5;exitDx=0;exitDy=0;entryX=1;entryY=0.5;entryDx=0;entryDy=0;fontFamily=Helvetica;" parent="1" source="uFyaukuFtMbKK42lwuoA-28" target="uFyaukuFtMbKK42lwuoA-25" edge="1">
                    <mxGeometry width="50" height="50" relative="1" as="geometry">
                        <mxPoint x="335" y="660" as="sourcePoint"/>
                        <mxPoint x="385" y="610" as="targetPoint"/>
                    </mxGeometry>
                </mxCell>
                <mxCell id="uFyaukuFtMbKK42lwuoA-36" value="" style="endArrow=none;html=1;fontSize=16;exitX=0.5;exitY=0;exitDx=0;exitDy=0;entryX=0.25;entryY=1;entryDx=0;entryDy=0;fontFamily=Helvetica;" parent="1" source="uFyaukuFtMbKK42lwuoA-31" target="uFyaukuFtMbKK42lwuoA-25" edge="1">
                    <mxGeometry width="50" height="50" relative="1" as="geometry">
                        <mxPoint x="335" y="660" as="sourcePoint"/>
                        <mxPoint x="385" y="610" as="targetPoint"/>
                    </mxGeometry>
                </mxCell>
                <mxCell id="uFyaukuFtMbKK42lwuoA-37" value="" style="endArrow=none;html=1;fontSize=16;exitX=0.5;exitY=0;exitDx=0;exitDy=0;entryX=0.75;entryY=1;entryDx=0;entryDy=0;fontFamily=Helvetica;" parent="1" source="uFyaukuFtMbKK42lwuoA-30" target="uFyaukuFtMbKK42lwuoA-25" edge="1">
                    <mxGeometry width="50" height="50" relative="1" as="geometry">
                        <mxPoint x="335" y="660" as="sourcePoint"/>
                        <mxPoint x="385" y="610" as="targetPoint"/>
                    </mxGeometry>
                </mxCell>
                <mxCell id="uFyaukuFtMbKK42lwuoA-44" value="被选中" style="rhombus;whiteSpace=wrap;html=1;fontSize=16;fontFamily=Helvetica;" parent="1" vertex="1">
                    <mxGeometry x="295" y="575" width="106" height="60" as="geometry"/>
                </mxCell>
                <mxCell id="uFyaukuFtMbKK42lwuoA-45" value="管理" style="rhombus;whiteSpace=wrap;html=1;fontSize=16;fontFamily=Helvetica;" parent="1" vertex="1">
                    <mxGeometry x="419" y="575" width="106" height="60" as="geometry"/>
                </mxCell>
                <mxCell id="uFyaukuFtMbKK42lwuoA-47" value="" style="endArrow=none;html=1;fontSize=16;exitX=0.5;exitY=0;exitDx=0;exitDy=0;entryX=0.25;entryY=1;entryDx=0;entryDy=0;fontFamily=Helvetica;" parent="1" source="uFyaukuFtMbKK42lwuoA-44" target="p96J7U3AIc4TSG7YhwrV-1" edge="1">
                    <mxGeometry width="50" height="50" relative="1" as="geometry">
                        <mxPoint x="376" y="590" as="sourcePoint"/>
                        <mxPoint x="406" y="510" as="targetPoint"/>
                    </mxGeometry>
                </mxCell>
                <mxCell id="uFyaukuFtMbKK42lwuoA-49" value="" style="endArrow=none;html=1;fontSize=16;exitX=0.5;exitY=0;exitDx=0;exitDy=0;entryX=0.75;entryY=1;entryDx=0;entryDy=0;fontFamily=Helvetica;" parent="1" source="uFyaukuFtMbKK42lwuoA-45" target="p96J7U3AIc4TSG7YhwrV-1" edge="1">
                    <mxGeometry width="50" height="50" relative="1" as="geometry">
                        <mxPoint x="406" y="530" as="sourcePoint"/>
                        <mxPoint x="416" y="510" as="targetPoint"/>
                    </mxGeometry>
                </mxCell>
                <mxCell id="uFyaukuFtMbKK42lwuoA-52" value="" style="endArrow=none;html=1;fontSize=16;exitX=0.75;exitY=0;exitDx=0;exitDy=0;entryX=0.5;entryY=1;entryDx=0;entryDy=0;fontFamily=Helvetica;" parent="1" source="uFyaukuFtMbKK42lwuoA-1" target="uFyaukuFtMbKK42lwuoA-44" edge="1">
                    <mxGeometry width="50" height="50" relative="1" as="geometry">
                        <mxPoint x="480" y="650" as="sourcePoint"/>
                        <mxPoint x="494.5" y="540" as="targetPoint"/>
                    </mxGeometry>
                </mxCell>
                <mxCell id="uFyaukuFtMbKK42lwuoA-55" value="" style="endArrow=none;html=1;fontSize=16;exitX=0.75;exitY=0;exitDx=0;exitDy=0;entryX=0.5;entryY=1;entryDx=0;entryDy=0;fontFamily=Helvetica;" parent="1" source="uFyaukuFtMbKK42lwuoA-25" target="uFyaukuFtMbKK42lwuoA-45" edge="1">
                    <mxGeometry width="50" height="50" relative="1" as="geometry">
                        <mxPoint x="460" y="740" as="sourcePoint"/>
                        <mxPoint x="474.5" y="630" as="targetPoint"/>
                    </mxGeometry>
                </mxCell>
                <mxCell id="EvTH_3og1xFX6YIFns_C-1" value="进度" style="ellipse;whiteSpace=wrap;html=1;fontSize=16;fontFamily=Helvetica;" vertex="1" parent="1">
                    <mxGeometry x="145" y="440" width="70" height="40" as="geometry"/>
                </mxCell>
                <mxCell id="EvTH_3og1xFX6YIFns_C-3" value="" style="endArrow=none;html=1;fontSize=16;exitX=1;exitY=0.5;exitDx=0;exitDy=0;entryX=0;entryY=0.5;entryDx=0;entryDy=0;fontFamily=Helvetica;" edge="1" parent="1" source="EvTH_3og1xFX6YIFns_C-1" target="p96J7U3AIc4TSG7YhwrV-1">
                    <mxGeometry width="50" height="50" relative="1" as="geometry">
                        <mxPoint x="349.74873734152925" y="434.14213562373106" as="sourcePoint"/>
                        <mxPoint x="386" y="450" as="targetPoint"/>
                    </mxGeometry>
                </mxCell>
                <mxCell id="tNc8iTB3S3T2WhXujpY_-1" value="处理" style="rhombus;whiteSpace=wrap;html=1;fontSize=16;fontFamily=Helvetica;" vertex="1" parent="1">
                    <mxGeometry x="364" y="670" width="106" height="60" as="geometry"/>
                </mxCell>
                <mxCell id="tNc8iTB3S3T2WhXujpY_-2" value="" style="endArrow=none;html=1;exitX=1;exitY=0.5;exitDx=0;exitDy=0;entryX=0;entryY=0.5;entryDx=0;entryDy=0;" edge="1" parent="1" source="tNc8iTB3S3T2WhXujpY_-1" target="uFyaukuFtMbKK42lwuoA-25">
                    <mxGeometry width="50" height="50" relative="1" as="geometry">
                        <mxPoint x="430" y="670" as="sourcePoint"/>
                        <mxPoint x="480" y="620" as="targetPoint"/>
                    </mxGeometry>
                </mxCell>
                <mxCell id="tNc8iTB3S3T2WhXujpY_-3" value="" style="endArrow=none;html=1;entryX=0;entryY=0.5;entryDx=0;entryDy=0;exitX=1;exitY=0.5;exitDx=0;exitDy=0;" edge="1" parent="1" source="uFyaukuFtMbKK42lwuoA-1" target="tNc8iTB3S3T2WhXujpY_-1">
                    <mxGeometry width="50" height="50" relative="1" as="geometry">
                        <mxPoint x="280" y="700" as="sourcePoint"/>
                        <mxPoint x="480" y="620" as="targetPoint"/>
                    </mxGeometry>
                </mxCell>
                <mxCell id="GSYtjPgzxGV1nf9Sirc_-1" value="查看" style="rhombus;whiteSpace=wrap;html=1;fontSize=16;fontFamily=Helvetica;" vertex="1" parent="1">
                    <mxGeometry x="165" y="575" width="106" height="60" as="geometry"/>
                </mxCell>
                <mxCell id="GSYtjPgzxGV1nf9Sirc_-2" value="" style="endArrow=none;html=1;exitX=0.5;exitY=1;exitDx=0;exitDy=0;entryX=0.5;entryY=0;entryDx=0;entryDy=0;" edge="1" parent="1" source="GSYtjPgzxGV1nf9Sirc_-1" target="uFyaukuFtMbKK42lwuoA-1">
                    <mxGeometry width="50" height="50" relative="1" as="geometry">
                        <mxPoint x="430" y="580" as="sourcePoint"/>
                        <mxPoint x="480" y="530" as="targetPoint"/>
                    </mxGeometry>
                </mxCell>
                <mxCell id="GSYtjPgzxGV1nf9Sirc_-3" value="" style="endArrow=none;html=1;entryX=0.25;entryY=1;entryDx=0;entryDy=0;" edge="1" parent="1" source="GSYtjPgzxGV1nf9Sirc_-1" target="p96J7U3AIc4TSG7YhwrV-1">
                    <mxGeometry width="50" height="50" relative="1" as="geometry">
                        <mxPoint x="430" y="580" as="sourcePoint"/>
                        <mxPoint x="480" y="530" as="targetPoint"/>
                    </mxGeometry>
                </mxCell>
            </root>
        </mxGraphModel>
    </diagram>
    <diagram id="Wkn27UmjP0DZcGuOuzBE" name="E-R图(问诊)">
        <mxGraphModel dx="1733" dy="507" grid="1" gridSize="10" guides="1" tooltips="1" connect="1" arrows="1" fold="1" page="1" pageScale="1" pageWidth="827" pageHeight="1169" math="0" shadow="0">
            <root>
                <mxCell id="0"/>
                <mxCell id="1" parent="0"/>
                <mxCell id="vhbUALSKlgjR7YTaHwuB-9" value="&lt;span style=&quot;font-size: 16px;&quot;&gt;药品&lt;/span&gt;" style="rounded=0;whiteSpace=wrap;html=1;direction=east;" parent="1" vertex="1">
                    <mxGeometry x="550" y="150" width="80" height="40" as="geometry"/>
                </mxCell>
                <mxCell id="vhbUALSKlgjR7YTaHwuB-10" value="编码" style="ellipse;whiteSpace=wrap;html=1;fontSize=16;" parent="1" vertex="1">
                    <mxGeometry x="460" y="70" width="70" height="40" as="geometry"/>
                </mxCell>
                <mxCell id="vhbUALSKlgjR7YTaHwuB-11" value="名称" style="ellipse;whiteSpace=wrap;html=1;fontSize=16;" parent="1" vertex="1">
                    <mxGeometry x="555" y="80" width="70" height="40" as="geometry"/>
                </mxCell>
                <mxCell id="1qzsjc2u1v692UNUH2UU-1" value="类型" style="ellipse;whiteSpace=wrap;html=1;fontSize=16;" parent="1" vertex="1">
                    <mxGeometry x="642" y="80" width="70" height="40" as="geometry"/>
                </mxCell>
                <mxCell id="1qzsjc2u1v692UNUH2UU-2" value="价格" style="ellipse;whiteSpace=wrap;html=1;fontSize=16;" parent="1" vertex="1">
                    <mxGeometry x="380" y="120" width="70" height="40" as="geometry"/>
                </mxCell>
                <mxCell id="1qzsjc2u1v692UNUH2UU-3" value="规格" style="ellipse;whiteSpace=wrap;html=1;fontSize=16;" parent="1" vertex="1">
                    <mxGeometry x="730" y="130" width="70" height="40" as="geometry"/>
                </mxCell>
                <mxCell id="1qzsjc2u1v692UNUH2UU-4" value="用量" style="ellipse;whiteSpace=wrap;html=1;fontSize=16;" parent="1" vertex="1">
                    <mxGeometry x="730" y="30" width="70" height="40" as="geometry"/>
                </mxCell>
                <mxCell id="1qzsjc2u1v692UNUH2UU-5" value="厂家" style="ellipse;whiteSpace=wrap;html=1;fontSize=16;" parent="1" vertex="1">
                    <mxGeometry x="500" y="30" width="70" height="40" as="geometry"/>
                </mxCell>
                <mxCell id="1qzsjc2u1v692UNUH2UU-6" value="描述" style="ellipse;whiteSpace=wrap;html=1;fontSize=16;" parent="1" vertex="1">
                    <mxGeometry x="380" y="30" width="70" height="40" as="geometry"/>
                </mxCell>
                <mxCell id="1qzsjc2u1v692UNUH2UU-7" value="库存" style="ellipse;whiteSpace=wrap;html=1;fontSize=16;" parent="1" vertex="1">
                    <mxGeometry x="610" y="30" width="70" height="40" as="geometry"/>
                </mxCell>
                <mxCell id="1qzsjc2u1v692UNUH2UU-8" value="" style="endArrow=none;html=1;fontSize=16;entryX=1;entryY=1;entryDx=0;entryDy=0;exitX=0;exitY=1;exitDx=0;exitDy=0;" parent="1" source="vhbUALSKlgjR7YTaHwuB-9" target="1qzsjc2u1v692UNUH2UU-2" edge="1">
                    <mxGeometry width="50" height="50" relative="1" as="geometry">
                        <mxPoint x="400" y="340" as="sourcePoint"/>
                        <mxPoint x="450" y="290" as="targetPoint"/>
                    </mxGeometry>
                </mxCell>
                <mxCell id="1qzsjc2u1v692UNUH2UU-9" value="" style="endArrow=none;html=1;fontSize=16;entryX=1;entryY=1;entryDx=0;entryDy=0;exitX=0;exitY=0.5;exitDx=0;exitDy=0;" parent="1" source="1qzsjc2u1v692UNUH2UU-3" target="vhbUALSKlgjR7YTaHwuB-9" edge="1">
                    <mxGeometry width="50" height="50" relative="1" as="geometry">
                        <mxPoint x="400" y="340" as="sourcePoint"/>
                        <mxPoint x="450" y="290" as="targetPoint"/>
                    </mxGeometry>
                </mxCell>
                <mxCell id="1qzsjc2u1v692UNUH2UU-10" value="" style="endArrow=none;html=1;fontSize=16;entryX=0;entryY=1;entryDx=0;entryDy=0;exitX=0;exitY=0.75;exitDx=0;exitDy=0;" parent="1" source="vhbUALSKlgjR7YTaHwuB-9" target="1qzsjc2u1v692UNUH2UU-6" edge="1">
                    <mxGeometry width="50" height="50" relative="1" as="geometry">
                        <mxPoint x="400" y="340" as="sourcePoint"/>
                        <mxPoint x="450" y="290" as="targetPoint"/>
                    </mxGeometry>
                </mxCell>
                <mxCell id="1qzsjc2u1v692UNUH2UU-11" value="" style="endArrow=none;html=1;fontSize=16;entryX=1;entryY=1;entryDx=0;entryDy=0;exitX=1;exitY=0.75;exitDx=0;exitDy=0;" parent="1" source="vhbUALSKlgjR7YTaHwuB-9" target="1qzsjc2u1v692UNUH2UU-4" edge="1">
                    <mxGeometry width="50" height="50" relative="1" as="geometry">
                        <mxPoint x="660" y="170" as="sourcePoint"/>
                        <mxPoint x="450" y="290" as="targetPoint"/>
                    </mxGeometry>
                </mxCell>
                <mxCell id="1qzsjc2u1v692UNUH2UU-12" value="" style="endArrow=none;html=1;fontSize=16;entryX=0.5;entryY=1;entryDx=0;entryDy=0;exitX=0;exitY=0;exitDx=0;exitDy=0;" parent="1" source="vhbUALSKlgjR7YTaHwuB-9" target="vhbUALSKlgjR7YTaHwuB-10" edge="1">
                    <mxGeometry width="50" height="50" relative="1" as="geometry">
                        <mxPoint x="400" y="340" as="sourcePoint"/>
                        <mxPoint x="450" y="290" as="targetPoint"/>
                    </mxGeometry>
                </mxCell>
                <mxCell id="1qzsjc2u1v692UNUH2UU-13" value="" style="endArrow=none;html=1;fontSize=16;entryX=0.5;entryY=1;entryDx=0;entryDy=0;exitX=1;exitY=0;exitDx=0;exitDy=0;" parent="1" source="vhbUALSKlgjR7YTaHwuB-9" target="1qzsjc2u1v692UNUH2UU-1" edge="1">
                    <mxGeometry width="50" height="50" relative="1" as="geometry">
                        <mxPoint x="400" y="340" as="sourcePoint"/>
                        <mxPoint x="450" y="290" as="targetPoint"/>
                    </mxGeometry>
                </mxCell>
                <mxCell id="1qzsjc2u1v692UNUH2UU-14" value="" style="endArrow=none;html=1;fontSize=16;entryX=0.5;entryY=1;entryDx=0;entryDy=0;exitX=0.25;exitY=0;exitDx=0;exitDy=0;" parent="1" source="vhbUALSKlgjR7YTaHwuB-9" target="1qzsjc2u1v692UNUH2UU-5" edge="1">
                    <mxGeometry width="50" height="50" relative="1" as="geometry">
                        <mxPoint x="400" y="340" as="sourcePoint"/>
                        <mxPoint x="450" y="290" as="targetPoint"/>
                    </mxGeometry>
                </mxCell>
                <mxCell id="1qzsjc2u1v692UNUH2UU-15" value="" style="endArrow=none;html=1;fontSize=16;entryX=0.5;entryY=1;entryDx=0;entryDy=0;exitX=0.75;exitY=0;exitDx=0;exitDy=0;" parent="1" source="vhbUALSKlgjR7YTaHwuB-9" target="1qzsjc2u1v692UNUH2UU-7" edge="1">
                    <mxGeometry width="50" height="50" relative="1" as="geometry">
                        <mxPoint x="400" y="340" as="sourcePoint"/>
                        <mxPoint x="450" y="290" as="targetPoint"/>
                    </mxGeometry>
                </mxCell>
                <mxCell id="1qzsjc2u1v692UNUH2UU-16" value="" style="endArrow=none;html=1;fontSize=16;entryX=0.5;entryY=1;entryDx=0;entryDy=0;exitX=0.5;exitY=0;exitDx=0;exitDy=0;" parent="1" source="vhbUALSKlgjR7YTaHwuB-9" target="vhbUALSKlgjR7YTaHwuB-11" edge="1">
                    <mxGeometry width="50" height="50" relative="1" as="geometry">
                        <mxPoint x="400" y="340" as="sourcePoint"/>
                        <mxPoint x="450" y="290" as="targetPoint"/>
                    </mxGeometry>
                </mxCell>
                <mxCell id="xT8covsgk9M7bwN-b7F--10" value="&lt;font style=&quot;font-size: 16px;&quot;&gt;检测&lt;/font&gt;" style="rounded=0;whiteSpace=wrap;html=1;" parent="1" vertex="1">
                    <mxGeometry x="187" y="90" width="80" height="40" as="geometry"/>
                </mxCell>
                <mxCell id="xT8covsgk9M7bwN-b7F--11" value="名称" style="ellipse;whiteSpace=wrap;html=1;fontSize=16;" parent="1" vertex="1">
                    <mxGeometry x="102" y="40" width="70" height="40" as="geometry"/>
                </mxCell>
                <mxCell id="xT8covsgk9M7bwN-b7F--12" value="耗时" style="ellipse;whiteSpace=wrap;html=1;fontSize=16;" parent="1" vertex="1">
                    <mxGeometry x="102" y="140" width="70" height="40" as="geometry"/>
                </mxCell>
                <mxCell id="xT8covsgk9M7bwN-b7F--13" value="类型" style="ellipse;whiteSpace=wrap;html=1;fontSize=16;" parent="1" vertex="1">
                    <mxGeometry x="277" y="40" width="70" height="40" as="geometry"/>
                </mxCell>
                <mxCell id="xT8covsgk9M7bwN-b7F--14" value="费用" style="ellipse;whiteSpace=wrap;html=1;fontSize=16;" parent="1" vertex="1">
                    <mxGeometry x="277" y="140" width="70" height="40" as="geometry"/>
                </mxCell>
                <mxCell id="xT8covsgk9M7bwN-b7F--15" value="" style="endArrow=none;html=1;fontSize=16;exitX=1;exitY=1;exitDx=0;exitDy=0;" parent="1" source="xT8covsgk9M7bwN-b7F--11" target="xT8covsgk9M7bwN-b7F--10" edge="1">
                    <mxGeometry width="50" height="50" relative="1" as="geometry">
                        <mxPoint x="508" y="130" as="sourcePoint"/>
                        <mxPoint x="558" y="80" as="targetPoint"/>
                    </mxGeometry>
                </mxCell>
                <mxCell id="xT8covsgk9M7bwN-b7F--16" value="" style="endArrow=none;html=1;fontSize=16;exitX=1;exitY=0;exitDx=0;exitDy=0;" parent="1" source="xT8covsgk9M7bwN-b7F--10" target="xT8covsgk9M7bwN-b7F--13" edge="1">
                    <mxGeometry width="50" height="50" relative="1" as="geometry">
                        <mxPoint x="508" y="130" as="sourcePoint"/>
                        <mxPoint x="558" y="80" as="targetPoint"/>
                    </mxGeometry>
                </mxCell>
                <mxCell id="xT8covsgk9M7bwN-b7F--17" value="" style="endArrow=none;html=1;fontSize=16;exitX=1;exitY=0;exitDx=0;exitDy=0;" parent="1" source="xT8covsgk9M7bwN-b7F--12" target="xT8covsgk9M7bwN-b7F--10" edge="1">
                    <mxGeometry width="50" height="50" relative="1" as="geometry">
                        <mxPoint x="508" y="130" as="sourcePoint"/>
                        <mxPoint x="558" y="80" as="targetPoint"/>
                    </mxGeometry>
                </mxCell>
                <mxCell id="xT8covsgk9M7bwN-b7F--18" value="" style="endArrow=none;html=1;fontSize=16;" parent="1" target="xT8covsgk9M7bwN-b7F--14" edge="1">
                    <mxGeometry width="50" height="50" relative="1" as="geometry">
                        <mxPoint x="268" y="130" as="sourcePoint"/>
                        <mxPoint x="558" y="80" as="targetPoint"/>
                    </mxGeometry>
                </mxCell>
                <mxCell id="5r2i1DdRiOHvF-3ZOqap-11" value="&lt;font style=&quot;font-size: 16px;&quot;&gt;医生&lt;/font&gt;" style="rounded=0;whiteSpace=wrap;html=1;" parent="1" vertex="1">
                    <mxGeometry x="357" y="350" width="80" height="40" as="geometry"/>
                </mxCell>
                <mxCell id="XTzB0xAA1N7HMq61CJuM-1" value="查看" style="rhombus;whiteSpace=wrap;html=1;fontSize=16;" parent="1" vertex="1">
                    <mxGeometry x="50" y="240" width="106" height="60" as="geometry"/>
                </mxCell>
                <mxCell id="NphzvKUwdPIa6557LBzz-1" value="" style="endArrow=none;html=1;fontSize=16;exitX=0.5;exitY=1;exitDx=0;exitDy=0;entryX=0.5;entryY=0;entryDx=0;entryDy=0;" parent="1" target="XTzB0xAA1N7HMq61CJuM-1" edge="1" source="xT8covsgk9M7bwN-b7F--10">
                    <mxGeometry width="50" height="50" relative="1" as="geometry">
                        <mxPoint x="204.5" y="190" as="sourcePoint"/>
                        <mxPoint x="204.5" y="290" as="targetPoint"/>
                    </mxGeometry>
                </mxCell>
                <mxCell id="49LCwFr8JIhowJqBG5SI-1" value="" style="endArrow=none;html=1;fontSize=16;entryX=0.5;entryY=1;entryDx=0;entryDy=0;exitX=0;exitY=0.5;exitDx=0;exitDy=0;" parent="1" source="5r2i1DdRiOHvF-3ZOqap-11" target="XTzB0xAA1N7HMq61CJuM-1" edge="1">
                    <mxGeometry width="50" height="50" relative="1" as="geometry">
                        <mxPoint x="270" y="440" as="sourcePoint"/>
                        <mxPoint x="490" y="320" as="targetPoint"/>
                    </mxGeometry>
                </mxCell>
                <mxCell id="s8rUCOkPRuErL3iJifoI-1" value="&lt;font style=&quot;font-size: 16px;&quot;&gt;病人&lt;/font&gt;" style="rounded=0;whiteSpace=wrap;html=1;" parent="1" vertex="1">
                    <mxGeometry x="357" y="890" width="80" height="40" as="geometry"/>
                </mxCell>
                <mxCell id="s8rUCOkPRuErL3iJifoI-2" value="账号" style="ellipse;whiteSpace=wrap;html=1;fontSize=16;" parent="1" vertex="1">
                    <mxGeometry x="187" y="1020" width="70" height="40" as="geometry"/>
                </mxCell>
                <mxCell id="s8rUCOkPRuErL3iJifoI-3" value="密码" style="ellipse;whiteSpace=wrap;html=1;fontSize=16;" parent="1" vertex="1">
                    <mxGeometry x="517" y="1020" width="70" height="40" as="geometry"/>
                </mxCell>
                <mxCell id="s8rUCOkPRuErL3iJifoI-4" value="姓名" style="ellipse;whiteSpace=wrap;html=1;fontSize=16;" parent="1" vertex="1">
                    <mxGeometry x="517" y="930" width="70" height="40" as="geometry"/>
                </mxCell>
                <mxCell id="s8rUCOkPRuErL3iJifoI-5" value="ID" style="ellipse;whiteSpace=wrap;html=1;fontSize=16;" parent="1" vertex="1">
                    <mxGeometry x="187" y="930" width="70" height="40" as="geometry"/>
                </mxCell>
                <mxCell id="s8rUCOkPRuErL3iJifoI-6" value="性别" style="ellipse;whiteSpace=wrap;html=1;fontSize=16;" parent="1" vertex="1">
                    <mxGeometry x="307" y="1020" width="70" height="40" as="geometry"/>
                </mxCell>
                <mxCell id="s8rUCOkPRuErL3iJifoI-7" value="年龄" style="ellipse;whiteSpace=wrap;html=1;fontSize=16;" parent="1" vertex="1">
                    <mxGeometry x="417" y="1020" width="70" height="40" as="geometry"/>
                </mxCell>
                <mxCell id="s8rUCOkPRuErL3iJifoI-8" value="电话" style="ellipse;whiteSpace=wrap;html=1;fontSize=16;" parent="1" vertex="1">
                    <mxGeometry x="257" y="970" width="70" height="40" as="geometry"/>
                </mxCell>
                <mxCell id="s8rUCOkPRuErL3iJifoI-9" value="邮箱" style="ellipse;whiteSpace=wrap;html=1;fontSize=16;" parent="1" vertex="1">
                    <mxGeometry x="362" y="970" width="70" height="40" as="geometry"/>
                </mxCell>
                <mxCell id="s8rUCOkPRuErL3iJifoI-10" value="医保" style="ellipse;whiteSpace=wrap;html=1;fontSize=16;" parent="1" vertex="1">
                    <mxGeometry x="457" y="970" width="70" height="40" as="geometry"/>
                </mxCell>
                <mxCell id="s8rUCOkPRuErL3iJifoI-11" value="" style="endArrow=none;html=1;fontSize=16;exitX=0.5;exitY=0;exitDx=0;exitDy=0;entryX=0;entryY=0;entryDx=0;entryDy=0;" parent="1" source="s8rUCOkPRuErL3iJifoI-5" target="s8rUCOkPRuErL3iJifoI-1" edge="1">
                    <mxGeometry width="50" height="50" relative="1" as="geometry">
                        <mxPoint x="191" y="830" as="sourcePoint"/>
                        <mxPoint x="241" y="780" as="targetPoint"/>
                    </mxGeometry>
                </mxCell>
                <mxCell id="s8rUCOkPRuErL3iJifoI-12" value="" style="endArrow=none;html=1;fontSize=16;exitX=0.5;exitY=0;exitDx=0;exitDy=0;entryX=0.5;entryY=1;entryDx=0;entryDy=0;" parent="1" source="s8rUCOkPRuErL3iJifoI-9" target="s8rUCOkPRuErL3iJifoI-1" edge="1">
                    <mxGeometry width="50" height="50" relative="1" as="geometry">
                        <mxPoint x="191" y="830" as="sourcePoint"/>
                        <mxPoint x="241" y="780" as="targetPoint"/>
                    </mxGeometry>
                </mxCell>
                <mxCell id="s8rUCOkPRuErL3iJifoI-13" value="" style="endArrow=none;html=1;fontSize=16;exitX=0.5;exitY=0;exitDx=0;exitDy=0;entryX=1;entryY=0;entryDx=0;entryDy=0;" parent="1" source="s8rUCOkPRuErL3iJifoI-4" target="s8rUCOkPRuErL3iJifoI-1" edge="1">
                    <mxGeometry width="50" height="50" relative="1" as="geometry">
                        <mxPoint x="191" y="830" as="sourcePoint"/>
                        <mxPoint x="241" y="780" as="targetPoint"/>
                    </mxGeometry>
                </mxCell>
                <mxCell id="s8rUCOkPRuErL3iJifoI-14" value="" style="endArrow=none;html=1;fontSize=16;exitX=0.5;exitY=0;exitDx=0;exitDy=0;entryX=0;entryY=1;entryDx=0;entryDy=0;" parent="1" source="s8rUCOkPRuErL3iJifoI-8" target="s8rUCOkPRuErL3iJifoI-1" edge="1">
                    <mxGeometry width="50" height="50" relative="1" as="geometry">
                        <mxPoint x="191" y="830" as="sourcePoint"/>
                        <mxPoint x="241" y="780" as="targetPoint"/>
                    </mxGeometry>
                </mxCell>
                <mxCell id="s8rUCOkPRuErL3iJifoI-15" value="" style="endArrow=none;html=1;fontSize=16;exitX=0.5;exitY=0;exitDx=0;exitDy=0;entryX=1;entryY=1;entryDx=0;entryDy=0;" parent="1" source="s8rUCOkPRuErL3iJifoI-10" target="s8rUCOkPRuErL3iJifoI-1" edge="1">
                    <mxGeometry width="50" height="50" relative="1" as="geometry">
                        <mxPoint x="191" y="830" as="sourcePoint"/>
                        <mxPoint x="241" y="780" as="targetPoint"/>
                    </mxGeometry>
                </mxCell>
                <mxCell id="s8rUCOkPRuErL3iJifoI-16" value="" style="endArrow=none;html=1;fontSize=16;exitX=0;exitY=0;exitDx=0;exitDy=0;entryX=0;entryY=0.25;entryDx=0;entryDy=0;" parent="1" source="s8rUCOkPRuErL3iJifoI-2" target="s8rUCOkPRuErL3iJifoI-1" edge="1">
                    <mxGeometry width="50" height="50" relative="1" as="geometry">
                        <mxPoint x="191" y="830" as="sourcePoint"/>
                        <mxPoint x="241" y="780" as="targetPoint"/>
                    </mxGeometry>
                </mxCell>
                <mxCell id="s8rUCOkPRuErL3iJifoI-17" value="" style="endArrow=none;html=1;fontSize=16;exitX=1;exitY=0;exitDx=0;exitDy=0;entryX=1;entryY=0.25;entryDx=0;entryDy=0;" parent="1" source="s8rUCOkPRuErL3iJifoI-3" target="s8rUCOkPRuErL3iJifoI-1" edge="1">
                    <mxGeometry width="50" height="50" relative="1" as="geometry">
                        <mxPoint x="191" y="830" as="sourcePoint"/>
                        <mxPoint x="241" y="780" as="targetPoint"/>
                    </mxGeometry>
                </mxCell>
                <mxCell id="s8rUCOkPRuErL3iJifoI-18" value="" style="endArrow=none;html=1;fontSize=16;entryX=0.25;entryY=1;entryDx=0;entryDy=0;" parent="1" source="s8rUCOkPRuErL3iJifoI-6" target="s8rUCOkPRuErL3iJifoI-1" edge="1">
                    <mxGeometry width="50" height="50" relative="1" as="geometry">
                        <mxPoint x="191" y="830" as="sourcePoint"/>
                        <mxPoint x="241" y="780" as="targetPoint"/>
                    </mxGeometry>
                </mxCell>
                <mxCell id="s8rUCOkPRuErL3iJifoI-19" value="" style="endArrow=none;html=1;fontSize=16;exitX=0.5;exitY=0;exitDx=0;exitDy=0;entryX=0.75;entryY=1;entryDx=0;entryDy=0;" parent="1" source="s8rUCOkPRuErL3iJifoI-7" target="s8rUCOkPRuErL3iJifoI-1" edge="1">
                    <mxGeometry width="50" height="50" relative="1" as="geometry">
                        <mxPoint x="191" y="830" as="sourcePoint"/>
                        <mxPoint x="241" y="780" as="targetPoint"/>
                    </mxGeometry>
                </mxCell>
                <mxCell id="dX_tKZJjoMrPK9mpTVCd-1" value="&lt;font style=&quot;font-size: 16px;&quot;&gt;病例单&lt;/font&gt;" style="rounded=0;whiteSpace=wrap;html=1;" parent="1" vertex="1">
                    <mxGeometry x="702" y="505" width="80" height="40" as="geometry"/>
                </mxCell>
                <mxCell id="JesT49cdcvGgKeMC6BMF-6" value="写入" style="rhombus;whiteSpace=wrap;html=1;fontSize=16;" parent="1" vertex="1">
                    <mxGeometry x="550" y="495" width="106" height="60" as="geometry"/>
                </mxCell>
                <mxCell id="JesT49cdcvGgKeMC6BMF-9" value="时间" style="ellipse;whiteSpace=wrap;html=1;fontSize=16;" parent="1" vertex="1">
                    <mxGeometry x="707" y="420" width="70" height="40" as="geometry"/>
                </mxCell>
                <mxCell id="JesT49cdcvGgKeMC6BMF-10" value="诊断" style="ellipse;whiteSpace=wrap;html=1;fontSize=16;" parent="1" vertex="1">
                    <mxGeometry x="830" y="505" width="70" height="40" as="geometry"/>
                </mxCell>
                <mxCell id="JesT49cdcvGgKeMC6BMF-11" value="描述" style="ellipse;whiteSpace=wrap;html=1;fontSize=16;" parent="1" vertex="1">
                    <mxGeometry x="707" y="600" width="70" height="40" as="geometry"/>
                </mxCell>
                <mxCell id="JesT49cdcvGgKeMC6BMF-12" value="" style="endArrow=none;html=1;fontSize=16;exitX=0.5;exitY=0;exitDx=0;exitDy=0;" parent="1" source="dX_tKZJjoMrPK9mpTVCd-1" target="JesT49cdcvGgKeMC6BMF-9" edge="1">
                    <mxGeometry width="50" height="50" relative="1" as="geometry">
                        <mxPoint x="537" y="430" as="sourcePoint"/>
                        <mxPoint x="587" y="380" as="targetPoint"/>
                    </mxGeometry>
                </mxCell>
                <mxCell id="JesT49cdcvGgKeMC6BMF-14" value="" style="endArrow=none;html=1;fontSize=16;exitX=0.5;exitY=0;exitDx=0;exitDy=0;entryX=0.5;entryY=1;entryDx=0;entryDy=0;" parent="1" edge="1" target="dX_tKZJjoMrPK9mpTVCd-1" source="JesT49cdcvGgKeMC6BMF-11">
                    <mxGeometry width="50" height="50" relative="1" as="geometry">
                        <mxPoint x="736.5" y="560" as="sourcePoint"/>
                        <mxPoint x="736.5" y="520" as="targetPoint"/>
                    </mxGeometry>
                </mxCell>
                <mxCell id="JesT49cdcvGgKeMC6BMF-15" value="" style="endArrow=none;html=1;fontSize=16;exitX=1;exitY=0.5;exitDx=0;exitDy=0;entryX=0;entryY=0.5;entryDx=0;entryDy=0;" parent="1" source="dX_tKZJjoMrPK9mpTVCd-1" target="JesT49cdcvGgKeMC6BMF-10" edge="1">
                    <mxGeometry width="50" height="50" relative="1" as="geometry">
                        <mxPoint x="537" y="440" as="sourcePoint"/>
                        <mxPoint x="587" y="390" as="targetPoint"/>
                    </mxGeometry>
                </mxCell>
                <mxCell id="JesT49cdcvGgKeMC6BMF-16" value="查看" style="rhombus;whiteSpace=wrap;html=1;fontSize=16;" parent="1" vertex="1">
                    <mxGeometry x="550" y="570" width="106" height="60" as="geometry"/>
                </mxCell>
                <mxCell id="vrKpf-JxCB2i_FxG1Dol-1" value="&lt;span style=&quot;font-size: 16px;&quot;&gt;管理员&lt;/span&gt;" style="rounded=0;whiteSpace=wrap;html=1;" parent="1" vertex="1">
                    <mxGeometry x="92" y="495" width="80" height="40" as="geometry"/>
                </mxCell>
                <mxCell id="vrKpf-JxCB2i_FxG1Dol-2" value="账号" style="ellipse;whiteSpace=wrap;html=1;fontSize=16;" parent="1" vertex="1">
                    <mxGeometry x="-1" y="565" width="70" height="40" as="geometry"/>
                </mxCell>
                <mxCell id="vrKpf-JxCB2i_FxG1Dol-3" value="密码" style="ellipse;whiteSpace=wrap;html=1;fontSize=16;" parent="1" vertex="1">
                    <mxGeometry x="97" y="565" width="70" height="40" as="geometry"/>
                </mxCell>
                <mxCell id="vrKpf-JxCB2i_FxG1Dol-4" value="姓名" style="ellipse;whiteSpace=wrap;html=1;fontSize=16;" parent="1" vertex="1">
                    <mxGeometry x="-1" y="500" width="70" height="40" as="geometry"/>
                </mxCell>
                <mxCell id="vrKpf-JxCB2i_FxG1Dol-5" value="邮箱" style="ellipse;whiteSpace=wrap;html=1;fontSize=16;" parent="1" vertex="1">
                    <mxGeometry x="-1" y="430" width="70" height="40" as="geometry"/>
                </mxCell>
                <mxCell id="vrKpf-JxCB2i_FxG1Dol-6" value="职位" style="ellipse;whiteSpace=wrap;html=1;fontSize=16;" parent="1" vertex="1">
                    <mxGeometry x="97" y="430" width="70" height="40" as="geometry"/>
                </mxCell>
                <mxCell id="vrKpf-JxCB2i_FxG1Dol-7" value="最后登录" style="ellipse;whiteSpace=wrap;html=1;fontSize=16;" parent="1" vertex="1">
                    <mxGeometry x="-1" y="370" width="70" height="40" as="geometry"/>
                </mxCell>
                <mxCell id="vrKpf-JxCB2i_FxG1Dol-9" value="" style="endArrow=none;html=1;fontSize=16;exitX=0.5;exitY=0;exitDx=0;exitDy=0;entryX=0.5;entryY=1;entryDx=0;entryDy=0;" parent="1" source="vrKpf-JxCB2i_FxG1Dol-3" target="vrKpf-JxCB2i_FxG1Dol-1" edge="1">
                    <mxGeometry width="50" height="50" relative="1" as="geometry">
                        <mxPoint x="-108" y="475" as="sourcePoint"/>
                        <mxPoint x="-58" y="425" as="targetPoint"/>
                    </mxGeometry>
                </mxCell>
                <mxCell id="-47WDhF8EYB1aFJ8DIDY-9" value="" style="endArrow=none;html=1;fontSize=16;entryX=0.5;entryY=1;entryDx=0;entryDy=0;exitX=0.5;exitY=0;exitDx=0;exitDy=0;" parent="1" source="ezdmm4-YfRrITyFo6kQp-1" target="xT8covsgk9M7bwN-b7F--10" edge="1">
                    <mxGeometry width="50" height="50" relative="1" as="geometry">
                        <mxPoint x="380" y="320" as="sourcePoint"/>
                        <mxPoint x="490" y="330" as="targetPoint"/>
                    </mxGeometry>
                </mxCell>
                <mxCell id="C0oc0iGACFAhX2XHiPdW-1" value="" style="endArrow=none;html=1;fontSize=16;exitX=1;exitY=0;exitDx=0;exitDy=0;entryX=0.25;entryY=1;entryDx=0;entryDy=0;" parent="1" source="vrKpf-JxCB2i_FxG1Dol-2" target="vrKpf-JxCB2i_FxG1Dol-1" edge="1">
                    <mxGeometry width="50" height="50" relative="1" as="geometry">
                        <mxPoint x="389" y="610" as="sourcePoint"/>
                        <mxPoint x="439" y="560" as="targetPoint"/>
                    </mxGeometry>
                </mxCell>
                <mxCell id="C0oc0iGACFAhX2XHiPdW-2" value="" style="endArrow=none;html=1;fontSize=16;exitX=1;exitY=0.5;exitDx=0;exitDy=0;entryX=0;entryY=0.5;entryDx=0;entryDy=0;" parent="1" source="vrKpf-JxCB2i_FxG1Dol-4" target="vrKpf-JxCB2i_FxG1Dol-1" edge="1">
                    <mxGeometry width="50" height="50" relative="1" as="geometry">
                        <mxPoint x="389" y="610" as="sourcePoint"/>
                        <mxPoint x="439" y="560" as="targetPoint"/>
                    </mxGeometry>
                </mxCell>
                <mxCell id="C0oc0iGACFAhX2XHiPdW-3" value="" style="endArrow=none;html=1;fontSize=16;exitX=1;exitY=0.5;exitDx=0;exitDy=0;entryX=0;entryY=0;entryDx=0;entryDy=0;" parent="1" source="vrKpf-JxCB2i_FxG1Dol-5" target="vrKpf-JxCB2i_FxG1Dol-1" edge="1">
                    <mxGeometry width="50" height="50" relative="1" as="geometry">
                        <mxPoint x="389" y="610" as="sourcePoint"/>
                        <mxPoint x="439" y="560" as="targetPoint"/>
                    </mxGeometry>
                </mxCell>
                <mxCell id="C0oc0iGACFAhX2XHiPdW-4" value="" style="endArrow=none;html=1;fontSize=16;exitX=1;exitY=1;exitDx=0;exitDy=0;entryX=0.25;entryY=0;entryDx=0;entryDy=0;" parent="1" source="vrKpf-JxCB2i_FxG1Dol-7" target="vrKpf-JxCB2i_FxG1Dol-1" edge="1">
                    <mxGeometry width="50" height="50" relative="1" as="geometry">
                        <mxPoint x="389" y="610" as="sourcePoint"/>
                        <mxPoint x="439" y="560" as="targetPoint"/>
                    </mxGeometry>
                </mxCell>
                <mxCell id="C0oc0iGACFAhX2XHiPdW-5" value="" style="endArrow=none;html=1;fontSize=16;exitX=0.5;exitY=0;exitDx=0;exitDy=0;entryX=0.5;entryY=1;entryDx=0;entryDy=0;" parent="1" source="vrKpf-JxCB2i_FxG1Dol-1" target="vrKpf-JxCB2i_FxG1Dol-6" edge="1">
                    <mxGeometry width="50" height="50" relative="1" as="geometry">
                        <mxPoint x="389" y="610" as="sourcePoint"/>
                        <mxPoint x="439" y="560" as="targetPoint"/>
                    </mxGeometry>
                </mxCell>
                <mxCell id="C0oc0iGACFAhX2XHiPdW-6" value="" style="endArrow=none;html=1;fontSize=16;entryX=0.5;entryY=0;entryDx=0;entryDy=0;" parent="1" target="5YfvdQnnSScPdqjLP8oq-1" edge="1">
                    <mxGeometry width="50" height="50" relative="1" as="geometry">
                        <mxPoint x="400" y="390" as="sourcePoint"/>
                        <mxPoint x="399.5" y="540" as="targetPoint"/>
                    </mxGeometry>
                </mxCell>
                <mxCell id="5YfvdQnnSScPdqjLP8oq-1" value="问诊" style="rhombus;whiteSpace=wrap;html=1;fontSize=16;" parent="1" vertex="1">
                    <mxGeometry x="347" y="490" width="106" height="60" as="geometry"/>
                </mxCell>
                <mxCell id="5YfvdQnnSScPdqjLP8oq-2" value="" style="endArrow=none;html=1;fontSize=16;exitX=0.5;exitY=1;exitDx=0;exitDy=0;entryX=0.5;entryY=0;entryDx=0;entryDy=0;" parent="1" source="5YfvdQnnSScPdqjLP8oq-1" target="s8rUCOkPRuErL3iJifoI-1" edge="1">
                    <mxGeometry width="50" height="50" relative="1" as="geometry">
                        <mxPoint x="399.5" y="595" as="sourcePoint"/>
                        <mxPoint x="399.5" y="695" as="targetPoint"/>
                    </mxGeometry>
                </mxCell>
                <mxCell id="F8lSQDFpmZw4Rb9fH8M6-1" value="" style="endArrow=none;html=1;fontSize=16;entryX=0;entryY=0.5;entryDx=0;entryDy=0;exitX=1;exitY=0.5;exitDx=0;exitDy=0;" parent="1" source="5YfvdQnnSScPdqjLP8oq-1" target="JesT49cdcvGgKeMC6BMF-6" edge="1">
                    <mxGeometry width="50" height="50" relative="1" as="geometry">
                        <mxPoint x="420" y="505" as="sourcePoint"/>
                        <mxPoint x="470" y="455" as="targetPoint"/>
                    </mxGeometry>
                </mxCell>
                <mxCell id="F8lSQDFpmZw4Rb9fH8M6-2" value="" style="endArrow=none;html=1;fontSize=16;exitX=1;exitY=0.5;exitDx=0;exitDy=0;entryX=0;entryY=0.5;entryDx=0;entryDy=0;" parent="1" source="JesT49cdcvGgKeMC6BMF-6" target="dX_tKZJjoMrPK9mpTVCd-1" edge="1">
                    <mxGeometry width="50" height="50" relative="1" as="geometry">
                        <mxPoint x="656" y="530" as="sourcePoint"/>
                        <mxPoint x="530" y="490" as="targetPoint"/>
                    </mxGeometry>
                </mxCell>
                <mxCell id="F8lSQDFpmZw4Rb9fH8M6-3" value="" style="endArrow=none;html=1;fontSize=16;exitX=0.5;exitY=0;exitDx=0;exitDy=0;entryX=0;entryY=0.5;entryDx=0;entryDy=0;" parent="1" source="s8rUCOkPRuErL3iJifoI-1" target="JesT49cdcvGgKeMC6BMF-16" edge="1">
                    <mxGeometry width="50" height="50" relative="1" as="geometry">
                        <mxPoint x="420" y="600" as="sourcePoint"/>
                        <mxPoint x="470" y="550" as="targetPoint"/>
                    </mxGeometry>
                </mxCell>
                <mxCell id="F8lSQDFpmZw4Rb9fH8M6-4" value="" style="endArrow=none;html=1;fontSize=16;exitX=1;exitY=0;exitDx=0;exitDy=0;entryX=0;entryY=1;entryDx=0;entryDy=0;" parent="1" source="JesT49cdcvGgKeMC6BMF-16" target="dX_tKZJjoMrPK9mpTVCd-1" edge="1">
                    <mxGeometry width="50" height="50" relative="1" as="geometry">
                        <mxPoint x="656" y="630" as="sourcePoint"/>
                        <mxPoint x="530" y="490" as="targetPoint"/>
                    </mxGeometry>
                </mxCell>
                <mxCell id="F8lSQDFpmZw4Rb9fH8M6-5" value="管理" style="rhombus;whiteSpace=wrap;html=1;fontSize=16;" parent="1" vertex="1">
                    <mxGeometry x="560" y="410" width="106" height="60" as="geometry"/>
                </mxCell>
                <mxCell id="F8lSQDFpmZw4Rb9fH8M6-6" value="" style="endArrow=none;html=1;fontSize=16;entryX=1;entryY=0.5;entryDx=0;entryDy=0;exitX=0;exitY=0;exitDx=0;exitDy=0;" parent="1" source="dX_tKZJjoMrPK9mpTVCd-1" target="F8lSQDFpmZw4Rb9fH8M6-5" edge="1">
                    <mxGeometry width="50" height="50" relative="1" as="geometry">
                        <mxPoint x="480" y="510" as="sourcePoint"/>
                        <mxPoint x="530" y="460" as="targetPoint"/>
                    </mxGeometry>
                </mxCell>
                <mxCell id="F8lSQDFpmZw4Rb9fH8M6-7" value="" style="endArrow=none;html=1;fontSize=16;exitX=1;exitY=0.5;exitDx=0;exitDy=0;entryX=0;entryY=0.5;entryDx=0;entryDy=0;" parent="1" source="vrKpf-JxCB2i_FxG1Dol-1" target="F8lSQDFpmZw4Rb9fH8M6-5" edge="1">
                    <mxGeometry width="50" height="50" relative="1" as="geometry">
                        <mxPoint x="420" y="600" as="sourcePoint"/>
                        <mxPoint x="470" y="550" as="targetPoint"/>
                    </mxGeometry>
                </mxCell>
                <mxCell id="ezdmm4-YfRrITyFo6kQp-1" value="管理" style="rhombus;whiteSpace=wrap;html=1;fontSize=16;" parent="1" vertex="1">
                    <mxGeometry x="280" y="240" width="106" height="60" as="geometry"/>
                </mxCell>
                <mxCell id="ezdmm4-YfRrITyFo6kQp-3" value="" style="endArrow=none;html=1;fontSize=16;exitX=1;exitY=0;exitDx=0;exitDy=0;entryX=0.5;entryY=1;entryDx=0;entryDy=0;" parent="1" source="vrKpf-JxCB2i_FxG1Dol-1" target="ezdmm4-YfRrITyFo6kQp-1" edge="1">
                    <mxGeometry width="50" height="50" relative="1" as="geometry">
                        <mxPoint x="420" y="400" as="sourcePoint"/>
                        <mxPoint x="470" y="350" as="targetPoint"/>
                    </mxGeometry>
                </mxCell>
                <mxCell id="ezdmm4-YfRrITyFo6kQp-4" value="执行" style="rhombus;whiteSpace=wrap;html=1;fontSize=16;" parent="1" vertex="1">
                    <mxGeometry x="422" y="240" width="106" height="60" as="geometry"/>
                </mxCell>
                <mxCell id="ezdmm4-YfRrITyFo6kQp-5" value="管理" style="rhombus;whiteSpace=wrap;html=1;fontSize=16;" parent="1" vertex="1">
                    <mxGeometry x="680" y="240" width="106" height="60" as="geometry"/>
                </mxCell>
                <mxCell id="ezdmm4-YfRrITyFo6kQp-6" value="" style="endArrow=none;html=1;fontSize=16;entryX=0.5;entryY=1;entryDx=0;entryDy=0;exitX=0.5;exitY=0;exitDx=0;exitDy=0;" parent="1" source="ezdmm4-YfRrITyFo6kQp-4" target="vhbUALSKlgjR7YTaHwuB-9" edge="1">
                    <mxGeometry width="50" height="50" relative="1" as="geometry">
                        <mxPoint x="420" y="300" as="sourcePoint"/>
                        <mxPoint x="470" y="250" as="targetPoint"/>
                    </mxGeometry>
                </mxCell>
                <mxCell id="ezdmm4-YfRrITyFo6kQp-7" value="" style="endArrow=none;html=1;fontSize=16;entryX=0.5;entryY=1;entryDx=0;entryDy=0;exitX=0.5;exitY=0;exitDx=0;exitDy=0;" parent="1" source="ezdmm4-YfRrITyFo6kQp-5" target="vhbUALSKlgjR7YTaHwuB-9" edge="1">
                    <mxGeometry width="50" height="50" relative="1" as="geometry">
                        <mxPoint x="420" y="300" as="sourcePoint"/>
                        <mxPoint x="470" y="250" as="targetPoint"/>
                    </mxGeometry>
                </mxCell>
                <mxCell id="ezdmm4-YfRrITyFo6kQp-8" value="" style="endArrow=none;html=1;fontSize=16;exitX=0.75;exitY=0;exitDx=0;exitDy=0;entryX=0.5;entryY=1;entryDx=0;entryDy=0;" parent="1" source="5r2i1DdRiOHvF-3ZOqap-11" target="ezdmm4-YfRrITyFo6kQp-4" edge="1">
                    <mxGeometry width="50" height="50" relative="1" as="geometry">
                        <mxPoint x="420" y="300" as="sourcePoint"/>
                        <mxPoint x="470" y="250" as="targetPoint"/>
                    </mxGeometry>
                </mxCell>
                <mxCell id="ezdmm4-YfRrITyFo6kQp-10" value="" style="endArrow=none;html=1;fontSize=16;exitX=1;exitY=0.25;exitDx=0;exitDy=0;entryX=0.5;entryY=1;entryDx=0;entryDy=0;" parent="1" source="vrKpf-JxCB2i_FxG1Dol-1" target="ezdmm4-YfRrITyFo6kQp-5" edge="1">
                    <mxGeometry width="50" height="50" relative="1" as="geometry">
                        <mxPoint x="420" y="300" as="sourcePoint"/>
                        <mxPoint x="470" y="250" as="targetPoint"/>
                    </mxGeometry>
                </mxCell>
                <mxCell id="Ncc6OgzGhps8xz5ehxXC-1" value="" style="endArrow=none;html=1;fontSize=16;entryX=0.5;entryY=1;entryDx=0;entryDy=0;exitX=0.5;exitY=0;exitDx=0;exitDy=0;" edge="1" parent="1" source="s8rUCOkPRuErL3iJifoI-1" target="XTzB0xAA1N7HMq61CJuM-1">
                    <mxGeometry width="50" height="50" relative="1" as="geometry">
                        <mxPoint x="70" y="580" as="sourcePoint"/>
                        <mxPoint x="125" y="360" as="targetPoint"/>
                    </mxGeometry>
                </mxCell>
                <mxCell id="Ncc6OgzGhps8xz5ehxXC-2" value="" style="endArrow=none;html=1;fontSize=16;entryX=0.5;entryY=1;entryDx=0;entryDy=0;exitX=0.5;exitY=0;exitDx=0;exitDy=0;" edge="1" parent="1" source="s8rUCOkPRuErL3iJifoI-1" target="Ncc6OgzGhps8xz5ehxXC-8">
                    <mxGeometry width="50" height="50" relative="1" as="geometry">
                        <mxPoint x="460" y="640" as="sourcePoint"/>
                        <mxPoint x="521.5" y="360" as="targetPoint"/>
                    </mxGeometry>
                </mxCell>
                <mxCell id="Ncc6OgzGhps8xz5ehxXC-3" value="执行" style="rhombus;whiteSpace=wrap;html=1;fontSize=16;" vertex="1" parent="1">
                    <mxGeometry x="162" y="240" width="106" height="60" as="geometry"/>
                </mxCell>
                <mxCell id="Ncc6OgzGhps8xz5ehxXC-5" value="" style="endArrow=none;html=1;entryX=0.5;entryY=1;entryDx=0;entryDy=0;exitX=0.5;exitY=0;exitDx=0;exitDy=0;" edge="1" parent="1" source="Ncc6OgzGhps8xz5ehxXC-3" target="xT8covsgk9M7bwN-b7F--10">
                    <mxGeometry width="50" height="50" relative="1" as="geometry">
                        <mxPoint x="400" y="400" as="sourcePoint"/>
                        <mxPoint x="450" y="350" as="targetPoint"/>
                    </mxGeometry>
                </mxCell>
                <mxCell id="Ncc6OgzGhps8xz5ehxXC-6" value="" style="endArrow=none;html=1;entryX=0.5;entryY=1;entryDx=0;entryDy=0;exitX=0.5;exitY=0;exitDx=0;exitDy=0;" edge="1" parent="1" source="5r2i1DdRiOHvF-3ZOqap-11" target="Ncc6OgzGhps8xz5ehxXC-3">
                    <mxGeometry width="50" height="50" relative="1" as="geometry">
                        <mxPoint x="400" y="400" as="sourcePoint"/>
                        <mxPoint x="450" y="350" as="targetPoint"/>
                    </mxGeometry>
                </mxCell>
                <mxCell id="Ncc6OgzGhps8xz5ehxXC-8" value="查看" style="rhombus;whiteSpace=wrap;html=1;fontSize=16;" vertex="1" parent="1">
                    <mxGeometry x="550" y="240" width="106" height="60" as="geometry"/>
                </mxCell>
                <mxCell id="Ncc6OgzGhps8xz5ehxXC-9" value="" style="endArrow=none;html=1;entryX=0.5;entryY=1;entryDx=0;entryDy=0;exitX=0.5;exitY=0;exitDx=0;exitDy=0;" edge="1" parent="1" source="Ncc6OgzGhps8xz5ehxXC-8" target="vhbUALSKlgjR7YTaHwuB-9">
                    <mxGeometry width="50" height="50" relative="1" as="geometry">
                        <mxPoint x="400" y="300" as="sourcePoint"/>
                        <mxPoint x="450" y="250" as="targetPoint"/>
                    </mxGeometry>
                </mxCell>
                <mxCell id="Ncc6OgzGhps8xz5ehxXC-10" value="" style="endArrow=none;html=1;entryX=0.5;entryY=1;entryDx=0;entryDy=0;exitX=1;exitY=0.5;exitDx=0;exitDy=0;" edge="1" parent="1" source="5r2i1DdRiOHvF-3ZOqap-11" target="Ncc6OgzGhps8xz5ehxXC-8">
                    <mxGeometry width="50" height="50" relative="1" as="geometry">
                        <mxPoint x="400" y="500" as="sourcePoint"/>
                        <mxPoint x="450" y="450" as="targetPoint"/>
                    </mxGeometry>
                </mxCell>
                <mxCell id="TFeykzkJf4nvLvkXPeo0-1" value="检测地点" style="ellipse;whiteSpace=wrap;html=1;fontSize=16;" vertex="1" parent="1">
                    <mxGeometry x="32" y="90" width="70" height="40" as="geometry"/>
                </mxCell>
                <mxCell id="TFeykzkJf4nvLvkXPeo0-2" value="" style="endArrow=none;html=1;exitX=1;exitY=0.5;exitDx=0;exitDy=0;entryX=0;entryY=0.5;entryDx=0;entryDy=0;" edge="1" parent="1" source="TFeykzkJf4nvLvkXPeo0-1" target="xT8covsgk9M7bwN-b7F--10">
                    <mxGeometry width="50" height="50" relative="1" as="geometry">
                        <mxPoint x="400" y="250" as="sourcePoint"/>
                        <mxPoint x="450" y="200" as="targetPoint"/>
                    </mxGeometry>
                </mxCell>
                <mxCell id="TFeykzkJf4nvLvkXPeo0-3" value="取药地点" style="ellipse;whiteSpace=wrap;html=1;fontSize=16;" vertex="1" parent="1">
                    <mxGeometry x="377.5" y="180" width="70" height="40" as="geometry"/>
                </mxCell>
                <mxCell id="TFeykzkJf4nvLvkXPeo0-4" value="" style="endArrow=none;html=1;exitX=1;exitY=0.5;exitDx=0;exitDy=0;entryX=0.11;entryY=1;entryDx=0;entryDy=0;entryPerimeter=0;" edge="1" parent="1" source="TFeykzkJf4nvLvkXPeo0-3" target="vhbUALSKlgjR7YTaHwuB-9">
                    <mxGeometry width="50" height="50" relative="1" as="geometry">
                        <mxPoint x="745.5" y="340" as="sourcePoint"/>
                        <mxPoint x="550" y="190" as="targetPoint"/>
                    </mxGeometry>
                </mxCell>
                <mxCell id="TFeykzkJf4nvLvkXPeo0-5" value="读取/写入" style="rhombus;whiteSpace=wrap;html=1;fontSize=16;" vertex="1" parent="1">
                    <mxGeometry x="151" y="620" width="106" height="60" as="geometry"/>
                </mxCell>
                <mxCell id="TFeykzkJf4nvLvkXPeo0-6" value="" style="endArrow=none;html=1;entryX=0;entryY=0.5;entryDx=0;entryDy=0;exitX=0.5;exitY=0;exitDx=0;exitDy=0;" edge="1" parent="1" source="TFeykzkJf4nvLvkXPeo0-5" target="5YfvdQnnSScPdqjLP8oq-1">
                    <mxGeometry width="50" height="50" relative="1" as="geometry">
                        <mxPoint x="330" y="770" as="sourcePoint"/>
                        <mxPoint x="380" y="720" as="targetPoint"/>
                    </mxGeometry>
                </mxCell>
                <mxCell id="TFeykzkJf4nvLvkXPeo0-8" value="&lt;span style=&quot;font-size: 16px;&quot;&gt;历史病例&lt;/span&gt;" style="rounded=0;whiteSpace=wrap;html=1;" vertex="1" parent="1">
                    <mxGeometry x="41" y="710" width="80" height="40" as="geometry"/>
                </mxCell>
                <mxCell id="TFeykzkJf4nvLvkXPeo0-9" value="时间" style="ellipse;whiteSpace=wrap;html=1;fontSize=16;" vertex="1" parent="1">
                    <mxGeometry x="46" y="620" width="70" height="40" as="geometry"/>
                </mxCell>
                <mxCell id="TFeykzkJf4nvLvkXPeo0-10" value="" style="endArrow=none;html=1;fontSize=16;exitX=0.5;exitY=0;exitDx=0;exitDy=0;" edge="1" parent="1" target="TFeykzkJf4nvLvkXPeo0-9" source="TFeykzkJf4nvLvkXPeo0-8">
                    <mxGeometry width="50" height="50" relative="1" as="geometry">
                        <mxPoint x="81" y="705" as="sourcePoint"/>
                        <mxPoint x="-74" y="580" as="targetPoint"/>
                    </mxGeometry>
                </mxCell>
                <mxCell id="TFeykzkJf4nvLvkXPeo0-11" value="描述" style="ellipse;whiteSpace=wrap;html=1;fontSize=16;" vertex="1" parent="1">
                    <mxGeometry x="46" y="790" width="70" height="40" as="geometry"/>
                </mxCell>
                <mxCell id="TFeykzkJf4nvLvkXPeo0-12" value="" style="endArrow=none;html=1;fontSize=16;exitX=0.5;exitY=0;exitDx=0;exitDy=0;entryX=0.5;entryY=1;entryDx=0;entryDy=0;" edge="1" parent="1" source="TFeykzkJf4nvLvkXPeo0-11" target="TFeykzkJf4nvLvkXPeo0-8">
                    <mxGeometry width="50" height="50" relative="1" as="geometry">
                        <mxPoint x="80.5" y="780" as="sourcePoint"/>
                        <mxPoint x="86" y="765" as="targetPoint"/>
                    </mxGeometry>
                </mxCell>
                <mxCell id="TFeykzkJf4nvLvkXPeo0-13" value="诊断" style="ellipse;whiteSpace=wrap;html=1;fontSize=16;" vertex="1" parent="1">
                    <mxGeometry y="840" width="70" height="40" as="geometry"/>
                </mxCell>
                <mxCell id="TFeykzkJf4nvLvkXPeo0-14" value="" style="endArrow=none;html=1;fontSize=16;exitX=0;exitY=1;exitDx=0;exitDy=0;entryX=0;entryY=0.5;entryDx=0;entryDy=0;" edge="1" parent="1" target="TFeykzkJf4nvLvkXPeo0-13" source="TFeykzkJf4nvLvkXPeo0-8">
                    <mxGeometry width="50" height="50" relative="1" as="geometry">
                        <mxPoint x="139" y="740" as="sourcePoint"/>
                        <mxPoint x="-56" y="605" as="targetPoint"/>
                    </mxGeometry>
                </mxCell>
                <mxCell id="TFeykzkJf4nvLvkXPeo0-15" value="" style="endArrow=none;html=1;exitX=0.5;exitY=1;exitDx=0;exitDy=0;entryX=1;entryY=0.5;entryDx=0;entryDy=0;" edge="1" parent="1" source="TFeykzkJf4nvLvkXPeo0-5" target="TFeykzkJf4nvLvkXPeo0-8">
                    <mxGeometry width="50" height="50" relative="1" as="geometry">
                        <mxPoint x="378" y="700" as="sourcePoint"/>
                        <mxPoint x="428" y="650" as="targetPoint"/>
                    </mxGeometry>
                </mxCell>
                <mxCell id="TFeykzkJf4nvLvkXPeo0-16" value="查看" style="rhombus;whiteSpace=wrap;html=1;fontSize=16;" vertex="1" parent="1">
                    <mxGeometry x="155" y="740" width="106" height="60" as="geometry"/>
                </mxCell>
                <mxCell id="TFeykzkJf4nvLvkXPeo0-17" value="" style="endArrow=none;html=1;exitX=0;exitY=0;exitDx=0;exitDy=0;entryX=1;entryY=0.5;entryDx=0;entryDy=0;" edge="1" parent="1" source="s8rUCOkPRuErL3iJifoI-1" target="TFeykzkJf4nvLvkXPeo0-16">
                    <mxGeometry width="50" height="50" relative="1" as="geometry">
                        <mxPoint x="400" y="770" as="sourcePoint"/>
                        <mxPoint x="450" y="720" as="targetPoint"/>
                    </mxGeometry>
                </mxCell>
                <mxCell id="TFeykzkJf4nvLvkXPeo0-18" value="" style="endArrow=none;html=1;exitX=0.92;exitY=1.04;exitDx=0;exitDy=0;exitPerimeter=0;entryX=0;entryY=0.5;entryDx=0;entryDy=0;" edge="1" parent="1" source="TFeykzkJf4nvLvkXPeo0-8" target="TFeykzkJf4nvLvkXPeo0-16">
                    <mxGeometry width="50" height="50" relative="1" as="geometry">
                        <mxPoint x="368" y="700" as="sourcePoint"/>
                        <mxPoint x="418" y="650" as="targetPoint"/>
                    </mxGeometry>
                </mxCell>
                <mxCell id="TFeykzkJf4nvLvkXPeo0-19" value="" style="endArrow=none;html=1;entryX=0;entryY=1;entryDx=0;entryDy=0;exitX=1;exitY=0.5;exitDx=0;exitDy=0;" edge="1" parent="1" source="TFeykzkJf4nvLvkXPeo0-16" target="5r2i1DdRiOHvF-3ZOqap-11">
                    <mxGeometry width="50" height="50" relative="1" as="geometry">
                        <mxPoint x="260" y="770" as="sourcePoint"/>
                        <mxPoint x="450" y="520" as="targetPoint"/>
                    </mxGeometry>
                </mxCell>
                <mxCell id="TFeykzkJf4nvLvkXPeo0-20" value="" style="endArrow=none;html=1;exitX=0;exitY=0.5;exitDx=0;exitDy=0;entryX=1;entryY=1;entryDx=0;entryDy=0;" edge="1" parent="1" source="JesT49cdcvGgKeMC6BMF-16" target="5r2i1DdRiOHvF-3ZOqap-11">
                    <mxGeometry width="50" height="50" relative="1" as="geometry">
                        <mxPoint x="400" y="570" as="sourcePoint"/>
                        <mxPoint x="450" y="520" as="targetPoint"/>
                    </mxGeometry>
                </mxCell>
            </root>
        </mxGraphModel>
    </diagram>
</mxfile>